<svg width="24" height="25" viewBox="0 0 24 25" fill="none" xmlns="http://www.w3.org/2000/svg">
<path d="M20.5102 15.5038C19.9375 16.8582 19.0417 18.0516 17.9013 18.9798C16.7608 19.908 15.4103 20.5427 13.9679 20.8283C12.5254 21.114 11.035 21.042 9.62678 20.6186C8.21861 20.1952 6.93559 19.4333 5.8899 18.3995C4.84421 17.3657 4.06769 16.0914 3.62823 14.6882C3.18876 13.2849 3.09974 11.7954 3.36893 10.3498C3.63813 8.90417 4.25735 7.54652 5.17246 6.39551C6.08756 5.24451 7.2707 4.33519 8.61842 3.74707" stroke="#3B86F7" stroke-linecap="round" stroke-linejoin="round"/>
<path d="M21.2208 12.0021C21.2208 10.8199 20.988 9.64933 20.5356 8.55714C20.0832 7.46496 19.4201 6.47257 18.5842 5.63665C17.7483 4.80073 16.7559 4.13764 15.6637 3.68524C14.5715 3.23285 13.4009 3 12.2188 3V12.0021H21.2208Z" stroke="#3B86F7" stroke-linecap="round" stroke-linejoin="round"/>
</svg>
