<svg width="25" height="25" viewBox="0 0 25 25" fill="none" xmlns="http://www.w3.org/2000/svg">
<path d="M15.7425 10.0696C16.4926 9.31949 16.9141 8.30208 16.9141 7.24121C16.9141 6.18034 16.4926 5.16293 15.7425 4.41278C14.9923 3.66264 13.9749 3.24121 12.9141 3.24121C11.8532 3.24121 10.8358 3.66264 10.0856 4.41278C9.33549 5.16293 8.91406 6.18034 8.91406 7.24121C8.91406 8.30208 9.33549 9.31949 10.0856 10.0696C10.8358 10.8198 11.8532 11.2412 12.9141 11.2412C13.9749 11.2412 14.9923 10.8198 15.7425 10.0696Z" stroke="#070C24" stroke-linecap="round" stroke-linejoin="round"/>
<path d="M7.96431 16.2915C9.27707 14.9787 11.0575 14.2412 12.9141 14.2412C14.7706 14.2412 16.5511 14.9787 17.8638 16.2915C19.1766 17.6042 19.9141 19.3847 19.9141 21.2412H5.91406C5.91406 19.3847 6.65156 17.6042 7.96431 16.2915Z" stroke="#070C24" stroke-linecap="round" stroke-linejoin="round"/>
</svg>
